<svg width="553.090637" height="246.239990" viewBox="0 0 553.091 246.24" fill="none" xmlns="http://www.w3.org/2000/svg" xmlns:xlink="http://www.w3.org/1999/xlink">
	<desc>
			Created with Pixso.
	</desc>
	<defs/>
	<path id="Heading" d="M15.732 56.24C25.156 56.24 30.856 50.084 30.856 39.672L30.856 -2.28882e-05L22.648 -2.28882e-05L22.648 40.204C22.648 45.22 20.14 48.564 15.58 48.564C11.78 48.564 9.04399 45.98 7.90399 42.484L-1.3113e-05 45.904C2.12799 52.06 7.97999 56.24 15.732 56.24ZM54.3649 56.24C59.2289 56.24 63.3329 54.036 65.9169 50.54L65.9169 55.48L73.9729 55.48L73.9729 17.48L65.8409 17.48L65.8409 38.38C65.8409 44.992 61.6609 49.096 56.2649 49.096C50.1089 49.096 47.0689 45.144 47.0689 38.912L47.0689 17.48L38.7849 17.48L38.7849 39.596C38.7849 50.008 44.3329 56.24 54.3649 56.24ZM95.7434 56.24C106.535 56.316 111.095 49.248 111.095 44.004C111.095 36.1 104.027 34.048 97.7954 32.68C92.3234 31.464 88.8274 30.704 88.8274 27.968C88.8274 25.536 91.0314 23.408 95.3634 23.408C99.1634 23.408 102.127 25.08 103.875 27.74L110.639 24.016C107.675 19.456 102.431 16.644 95.3634 16.644C86.3954 16.568 80.6954 22.116 80.6954 28.12C80.6954 35.948 87.3834 38.076 93.8434 39.444C98.6314 40.432 103.039 41.116 103.039 44.156C103.039 46.816 100.683 49.172 96.1234 49.172C91.7914 49.172 88.4474 47.12 86.3954 43.624L79.0994 47.424C82.2914 53.048 87.8394 56.24 95.7434 56.24ZM115.343 24.776L121.803 24.776L121.803 39.976C121.803 51.832 125.299 55.48 136.851 55.48L138.067 55.48L138.067 47.804C131.075 47.804 130.011 46.74 130.011 39.9L130.011 24.776L138.067 24.776L138.067 17.48L130.011 17.48L130.011 4.02798L121.803 8.51198L121.803 17.48L115.343 17.48L115.343 24.776ZM0.227987 119.776L6.68799 119.776L6.68799 150.48L14.896 150.48L14.896 119.776L22.952 119.776L22.952 112.48L14.896 112.48L14.896 110.58C14.896 103.74 15.732 102.524 22.952 102.524L22.952 95L22.268 95C10.336 95 6.68799 98.648 6.68799 110.504L6.68799 112.48L0.227987 112.48L0.227987 119.776ZM45.3037 151.24C56.2477 151.24 65.0637 142.5 65.0637 131.48C65.0637 120.384 56.2477 111.72 45.3037 111.72C34.3597 111.72 25.6197 120.384 25.6197 131.48C25.6197 142.5 34.3597 151.24 45.3037 151.24ZM45.3037 143.64C38.7677 143.64 33.6757 138.168 33.6757 131.48C33.6757 124.792 38.7677 119.32 45.3037 119.32C51.8397 119.32 57.0077 124.792 57.0077 131.48C57.0077 138.168 51.8397 143.64 45.3037 143.64ZM90.2803 151.24C101.224 151.24 110.04 142.5 110.04 131.48C110.04 120.384 101.224 111.72 90.2803 111.72C79.3363 111.72 70.5963 120.384 70.5963 131.48C70.5963 142.5 79.3363 151.24 90.2803 151.24ZM90.2803 143.64C83.7443 143.64 78.6523 138.168 78.6523 131.48C78.6523 124.792 83.7443 119.32 90.2803 119.32C96.8163 119.32 101.984 124.792 101.984 131.48C101.984 138.168 96.8163 143.64 90.2803 143.64ZM134.497 151.24C139.513 151.24 144.301 148.96 147.189 145.236L147.189 150.48L155.245 150.48L155.245 95L147.189 95L147.189 117.42C144.377 113.924 139.589 111.72 134.573 111.72C124.617 111.72 115.573 119.32 115.573 131.48C115.573 143.564 124.845 151.24 134.497 151.24ZM135.637 143.792C128.873 143.792 123.629 138.32 123.629 131.404C123.629 124.488 128.873 119.092 135.637 119.092C142.553 119.092 147.645 124.64 147.645 131.404C147.645 138.244 142.553 143.792 135.637 143.792ZM180.284 119.776L186.744 119.776L186.744 134.976C186.744 146.832 190.24 150.48 201.792 150.48L203.008 150.48L203.008 142.804C196.016 142.804 194.952 141.74 194.952 134.9L194.952 119.776L203.008 119.776L203.008 112.48L194.952 112.48L194.952 99.028L186.744 103.512L186.744 112.48L180.284 112.48L180.284 119.776ZM226.694 151.24C237.638 151.24 246.454 142.5 246.454 131.48C246.454 120.384 237.638 111.72 226.694 111.72C215.75 111.72 207.01 120.384 207.01 131.48C207.01 142.5 215.75 151.24 226.694 151.24ZM226.694 143.64C220.158 143.64 215.066 138.168 215.066 131.48C215.066 124.792 220.158 119.32 226.694 119.32C233.23 119.32 238.398 124.792 238.398 131.48C238.398 138.168 233.23 143.64 226.694 143.64ZM271.835 150.48L279.967 150.48L279.967 95L271.835 95L271.835 150.48ZM288.162 150.48L296.37 150.48L296.37 112.48L288.162 112.48L288.162 150.48ZM288.162 107.236L296.37 107.236L296.37 96.596L288.162 96.596L288.162 107.236ZM316.583 150.48L324.715 150.48L339.079 112.48L330.643 112.48L320.687 139.916L310.579 112.48L301.991 112.48L316.583 150.48ZM361.039 151.24C369.475 151.24 375.479 147.136 378.823 140.904L372.135 137.18C370.159 141.284 366.207 144.02 361.039 144.02C354.427 144.02 349.867 140.144 348.803 134.292L380.267 134.292L380.267 131.1C380.267 119.852 371.983 111.72 360.735 111.72C349.563 111.72 340.975 120.46 340.975 131.632C340.975 142.652 349.031 151.24 361.039 151.24ZM360.735 118.864C366.587 118.864 370.767 121.904 371.983 127.376L349.183 127.376C350.703 122.36 355.111 118.864 360.735 118.864ZM423.282 151.24C428.298 151.24 433.086 148.96 435.974 145.236L435.974 150.48L444.106 150.48L444.106 112.48L435.974 112.48L435.974 117.42C433.162 113.924 428.374 111.72 423.358 111.72C413.402 111.72 404.358 119.32 404.358 131.48C404.358 143.564 413.63 151.24 423.282 151.24ZM424.422 143.792C417.658 143.792 412.414 138.32 412.414 131.404C412.414 124.488 417.658 119.092 424.422 119.092C431.338 119.092 436.43 124.64 436.43 131.404C436.43 138.244 431.338 143.792 424.422 143.792ZM1.97599 245.48L10.108 245.48L10.108 224.58C10.108 217.892 14.288 213.788 19.684 213.788C25.84 213.788 28.88 217.74 28.88 224.048L28.88 245.48L37.164 245.48L37.164 223.288C37.164 212.952 31.312 206.72 21.736 206.72C16.796 206.72 12.616 208.924 10.032 212.268L10.032 190L1.97599 190L1.97599 245.48ZM63.6446 246.24C72.0806 246.24 78.0846 242.136 81.4286 235.904L74.7406 232.18C72.7646 236.284 68.8126 239.02 63.6446 239.02C57.0326 239.02 52.4726 235.144 51.4086 229.292L82.8726 229.292L82.8726 226.1C82.8726 214.852 74.5886 206.72 63.3406 206.72C52.1686 206.72 43.5806 215.46 43.5806 226.632C43.5806 237.652 51.6366 246.24 63.6446 246.24ZM63.3406 213.864C69.1926 213.864 73.3727 216.904 74.5886 222.376L51.7886 222.376C53.3086 217.36 57.7166 213.864 63.3406 213.864ZM107.036 246.24C112.052 246.24 116.84 243.96 119.728 240.236L119.728 245.48L127.86 245.48L127.86 207.48L119.728 207.48L119.728 212.42C116.916 208.924 112.128 206.72 107.112 206.72C97.1559 206.72 88.1119 214.32 88.1119 226.48C88.1119 238.564 97.3839 246.24 107.036 246.24ZM108.176 238.792C101.412 238.792 96.1679 233.32 96.1679 226.404C96.1679 219.488 101.412 214.092 108.176 214.092C115.092 214.092 120.184 219.64 120.184 226.404C120.184 233.244 115.092 238.792 108.176 238.792ZM135.718 245.48L143.85 245.48L143.85 190L135.718 190L135.718 245.48ZM150.077 214.776L156.537 214.776L156.537 229.976C156.537 241.832 160.033 245.48 171.585 245.48L172.801 245.48L172.801 237.804C165.809 237.804 164.745 236.74 164.745 229.9L164.745 214.776L172.801 214.776L172.801 207.48L164.745 207.48L164.745 194.028L156.537 198.512L156.537 207.48L150.077 207.48L150.077 214.776ZM179.656 245.48L187.788 245.48L187.788 224.58C187.788 217.892 191.968 213.788 197.364 213.788C203.52 213.788 206.56 217.74 206.56 224.048L206.56 245.48L214.844 245.48L214.844 223.288C214.844 212.952 208.992 206.72 199.416 206.72C194.476 206.72 190.296 208.924 187.712 212.268L187.712 190L179.656 190L179.656 245.48ZM222.552 245.48L230.76 245.48L230.76 207.48L222.552 207.48L222.552 245.48ZM222.552 202.236L230.76 202.236L230.76 191.596L222.552 191.596L222.552 202.236ZM257.281 246.24C265.717 246.24 271.721 242.136 275.065 235.904L268.377 232.18C266.401 236.284 262.449 239.02 257.281 239.02C250.669 239.02 246.109 235.144 245.045 229.292L276.509 229.292L276.509 226.1C276.509 214.852 268.225 206.72 256.977 206.72C245.805 206.72 237.217 215.46 237.217 226.632C237.217 237.652 245.273 246.24 257.281 246.24ZM256.977 213.864C262.829 213.864 267.009 216.904 268.225 222.376L245.425 222.376C246.945 217.36 251.353 213.864 256.977 213.864ZM283.041 245.48L291.249 245.48L291.249 226.632C291.249 218.728 293.833 215.232 300.445 215.232L306.145 215.232L306.145 207.48L301.661 207.48C296.645 207.48 293.149 209.608 291.173 213.332L291.173 207.48L283.041 207.48L283.041 245.48ZM331.581 245.48L339.713 245.48L339.713 190L331.581 190L331.581 245.48ZM347.908 245.48L356.116 245.48L356.116 207.48L347.908 207.48L347.908 245.48ZM347.908 202.236L356.116 202.236L356.116 191.596L347.908 191.596L347.908 202.236ZM362.193 214.776L368.653 214.776L368.653 245.48L376.861 245.48L376.861 214.776L384.917 214.776L384.917 207.48L376.861 207.48L376.861 205.58C376.861 198.74 377.697 197.524 384.917 197.524L384.917 190L384.233 190C372.301 190 368.653 193.648 368.653 205.504L368.653 207.48L362.193 207.48L362.193 214.776ZM407.649 246.24C416.085 246.24 422.089 242.136 425.433 235.904L418.745 232.18C416.769 236.284 412.817 239.02 407.649 239.02C401.037 239.02 396.477 235.144 395.413 229.292L426.877 229.292L426.877 226.1C426.877 214.852 418.593 206.72 407.345 206.72C396.173 206.72 387.585 215.46 387.585 226.632C387.585 237.652 395.641 246.24 407.649 246.24ZM407.345 213.864C413.197 213.864 417.377 216.904 418.593 222.376L395.793 222.376C397.313 217.36 401.721 213.864 407.345 213.864Z" fill="#181D19" fill-opacity="1.000000" fill-rule="evenodd"/>
	<path id="Heading" d="M164.077 55.48L197.365 55.48L197.365 47.576L172.361 47.576L172.361 31.54L197.365 31.54L197.365 23.712L172.361 23.712L172.361 7.82798L197.365 7.82798L197.365 -2.28882e-05L164.077 -2.28882e-05L164.077 55.48ZM222.372 56.24C227.388 56.24 232.176 53.96 235.064 50.236L235.064 55.48L243.196 55.48L243.196 17.48L235.064 17.48L235.064 22.42C232.252 18.924 227.464 16.72 222.448 16.72C212.492 16.72 203.448 24.32 203.448 36.48C203.448 48.564 212.72 56.24 222.372 56.24ZM223.512 48.792C216.748 48.792 211.504 43.32 211.504 36.404C211.504 29.488 216.748 24.092 223.512 24.092C230.428 24.092 235.52 29.64 235.52 36.404C235.52 43.244 230.428 48.792 223.512 48.792ZM249.382 24.776L255.842 24.776L255.842 39.976C255.842 51.832 259.338 55.48 270.89 55.48L272.106 55.48L272.106 47.804C265.114 47.804 264.05 46.74 264.05 39.9L264.05 24.776L272.106 24.776L272.106 17.48L264.05 17.48L264.05 4.02798L255.842 8.51198L255.842 17.48L249.382 17.48L249.382 24.776ZM297.812 55.48L305.944 55.48L305.944 34.58C305.944 27.892 310.124 23.788 315.52 23.788C321.676 23.788 324.716 27.74 324.716 34.048L324.716 55.48L333 55.48L333 33.288C333 22.952 327.148 16.72 317.572 16.72C312.632 16.72 308.452 18.924 305.868 22.268L305.868 -2.28882e-05L297.812 -2.28882e-05L297.812 55.48ZM359.481 56.24C367.917 56.24 373.921 52.136 377.265 45.904L370.577 42.18C368.601 46.284 364.649 49.02 359.481 49.02C352.869 49.02 348.309 45.144 347.245 39.292L378.709 39.292L378.709 36.1C378.709 24.852 370.425 16.72 359.177 16.72C348.005 16.72 339.417 25.46 339.417 36.632C339.417 47.652 347.473 56.24 359.481 56.24ZM359.177 23.864C365.029 23.864 369.209 26.904 370.425 32.376L347.625 32.376C349.145 27.36 353.553 23.864 359.177 23.864ZM402.872 56.24C407.888 56.24 412.676 53.96 415.564 50.236L415.564 55.48L423.696 55.48L423.696 17.48L415.564 17.48L415.564 22.42C412.752 18.924 407.964 16.72 402.948 16.72C392.992 16.72 383.948 24.32 383.948 36.48C383.948 48.564 393.22 56.24 402.872 56.24ZM404.012 48.792C397.248 48.792 392.004 43.32 392.004 36.404C392.004 29.488 397.248 24.092 404.012 24.092C410.928 24.092 416.02 29.64 416.02 36.404C416.02 43.244 410.928 48.792 404.012 48.792ZM431.554 55.48L439.686 55.48L439.686 -2.28882e-05L431.554 -2.28882e-05L431.554 55.48ZM445.913 24.776L452.373 24.776L452.373 39.976C452.373 51.832 455.869 55.48 467.421 55.48L468.637 55.48L468.637 47.804C461.645 47.804 460.581 46.74 460.581 39.9L460.581 24.776L468.637 24.776L468.637 17.48L460.581 17.48L460.581 4.02798L452.373 8.51198L452.373 17.48L445.913 17.48L445.913 24.776ZM475.492 55.48L483.624 55.48L483.624 34.58C483.624 27.892 487.804 23.788 493.2 23.788C499.356 23.788 502.396 27.74 502.396 34.048L502.396 55.48L510.68 55.48L510.68 33.288C510.68 22.952 504.828 16.72 495.252 16.72C490.312 16.72 486.132 18.924 483.548 22.268L483.548 -2.28882e-05L475.492 -2.28882e-05L475.492 55.48ZM521.779 73.036L530.139 73.036L553.091 17.48L544.503 17.48L534.015 43.852L522.919 17.48L514.179 17.48L529.911 53.504L521.779 73.036Z" fill="#5FB848" fill-opacity="1.000000" fill-rule="evenodd"/>
</svg>
